<svg width="180" height="29" viewBox="0 0 180 29" fill="none" xmlns="http://www.w3.org/2000/svg">
<path d="M10.8 10.972H6.66V28H3.384V10.972H0.828V8.272H3.384V6.868C3.384 4.66 3.948 3.052 5.076 2.044C6.228 1.012 8.064 0.495998 10.584 0.495998V3.232C9.144 3.232 8.124 3.52 7.524 4.096C6.948 4.648 6.66 5.572 6.66 6.868V8.272H10.8V10.972ZM32.1157 8.272V28H28.8397V25.084C28.2157 26.092 27.3397 26.884 26.2117 27.46C25.1077 28.012 23.8837 28.288 22.5397 28.288C21.0037 28.288 19.6237 27.976 18.3997 27.352C17.1757 26.704 16.2037 25.744 15.4837 24.472C14.7877 23.2 14.4397 21.652 14.4397 19.828V8.272H17.6797V19.396C17.6797 21.34 18.1717 22.84 19.1557 23.896C20.1397 24.928 21.4837 25.444 23.1877 25.444C24.9397 25.444 26.3197 24.904 27.3277 23.824C28.3357 22.744 28.8397 21.172 28.8397 19.108V8.272H32.1157ZM44.631 28.324C43.119 28.324 41.763 28.072 40.563 27.568C39.363 27.04 38.415 26.32 37.719 25.408C37.023 24.472 36.639 23.404 36.567 22.204H39.951C40.047 23.188 40.503 23.992 41.319 24.616C42.159 25.24 43.251 25.552 44.595 25.552C45.843 25.552 46.827 25.276 47.547 24.724C48.267 24.172 48.627 23.476 48.627 22.636C48.627 21.772 48.243 21.136 47.475 20.728C46.707 20.296 45.519 19.876 43.911 19.468C42.447 19.084 41.247 18.7 40.311 18.316C39.399 17.908 38.607 17.32 37.935 16.552C37.287 15.76 36.963 14.728 36.963 13.456C36.963 12.448 37.263 11.524 37.863 10.684C38.463 9.844 39.315 9.184 40.419 8.704C41.523 8.2 42.783 7.948 44.199 7.948C46.383 7.948 48.147 8.5 49.491 9.604C50.835 10.708 51.555 12.22 51.651 14.14H48.375C48.303 13.108 47.883 12.28 47.115 11.656C46.371 11.032 45.363 10.72 44.091 10.72C42.915 10.72 41.979 10.972 41.283 11.476C40.587 11.98 40.239 12.64 40.239 13.456C40.239 14.104 40.443 14.644 40.851 15.076C41.283 15.484 41.811 15.82 42.435 16.084C43.083 16.324 43.971 16.6 45.099 16.912C46.515 17.296 47.667 17.68 48.555 18.064C49.443 18.424 50.199 18.976 50.823 19.72C51.471 20.464 51.807 21.436 51.831 22.636C51.831 23.716 51.531 24.688 50.931 25.552C50.331 26.416 49.479 27.1 48.375 27.604C47.295 28.084 46.047 28.324 44.631 28.324ZM58.1476 5.068C57.5236 5.068 56.9956 4.852 56.5636 4.42C56.1316 3.988 55.9156 3.46 55.9156 2.836C55.9156 2.212 56.1316 1.684 56.5636 1.252C56.9956 0.819999 57.5236 0.603999 58.1476 0.603999C58.7476 0.603999 59.2516 0.819999 59.6596 1.252C60.0916 1.684 60.3076 2.212 60.3076 2.836C60.3076 3.46 60.0916 3.988 59.6596 4.42C59.2516 4.852 58.7476 5.068 58.1476 5.068ZM59.7316 8.272V28H56.4556V8.272H59.7316ZM73.919 28.324C72.071 28.324 70.391 27.904 68.879 27.064C67.391 26.224 66.215 25.036 65.351 23.5C64.511 21.94 64.091 20.14 64.091 18.1C64.091 16.084 64.523 14.308 65.387 12.772C66.275 11.212 67.475 10.024 68.987 9.208C70.499 8.368 72.191 7.948 74.063 7.948C75.935 7.948 77.627 8.368 79.139 9.208C80.651 10.024 81.839 11.2 82.703 12.736C83.591 14.272 84.035 16.06 84.035 18.1C84.035 20.14 83.579 21.94 82.667 23.5C81.779 25.036 80.567 26.224 79.031 27.064C77.495 27.904 75.791 28.324 73.919 28.324ZM73.919 25.444C75.095 25.444 76.199 25.168 77.231 24.616C78.263 24.064 79.091 23.236 79.715 22.132C80.363 21.028 80.687 19.684 80.687 18.1C80.687 16.516 80.375 15.172 79.751 14.068C79.127 12.964 78.311 12.148 77.303 11.62C76.295 11.068 75.203 10.792 74.027 10.792C72.827 10.792 71.723 11.068 70.715 11.62C69.731 12.148 68.939 12.964 68.339 14.068C67.739 15.172 67.439 16.516 67.439 18.1C67.439 19.708 67.727 21.064 68.303 22.168C68.903 23.272 69.695 24.1 70.679 24.652C71.663 25.18 72.743 25.444 73.919 25.444ZM97.9543 7.912C100.354 7.912 102.298 8.644 103.786 10.108C105.274 11.548 106.018 13.636 106.018 16.372V28H102.778V16.84C102.778 14.872 102.286 13.372 101.302 12.34C100.318 11.284 98.9743 10.756 97.2703 10.756C95.5423 10.756 94.1623 11.296 93.1303 12.376C92.1223 13.456 91.6183 15.028 91.6183 17.092V28H88.3423V8.272H91.6183V11.08C92.2663 10.072 93.1423 9.292 94.2463 8.74C95.3743 8.188 96.6103 7.912 97.9543 7.912ZM130.702 2.908V28H127.426V16.624H114.646V28H111.37V2.908H114.646V13.924H127.426V2.908H130.702ZM153.791 8.272V28H150.515V25.084C149.891 26.092 149.015 26.884 147.887 27.46C146.783 28.012 145.559 28.288 144.215 28.288C142.679 28.288 141.299 27.976 140.075 27.352C138.851 26.704 137.879 25.744 137.159 24.472C136.463 23.2 136.115 21.652 136.115 19.828V8.272H139.355V19.396C139.355 21.34 139.847 22.84 140.831 23.896C141.815 24.928 143.159 25.444 144.863 25.444C146.615 25.444 147.995 24.904 149.003 23.824C150.011 22.744 150.515 21.172 150.515 19.108V8.272H153.791ZM162.599 11.944C163.271 10.768 164.255 9.808 165.551 9.064C166.847 8.32 168.323 7.948 169.979 7.948C171.755 7.948 173.351 8.368 174.767 9.208C176.183 10.048 177.299 11.236 178.115 12.772C178.931 14.284 179.339 16.048 179.339 18.064C179.339 20.056 178.931 21.832 178.115 23.392C177.299 24.952 176.171 26.164 174.731 27.028C173.315 27.892 171.731 28.324 169.979 28.324C168.275 28.324 166.775 27.952 165.479 27.208C164.207 26.464 163.247 25.516 162.599 24.364V28H159.323V1.36H162.599V11.944ZM175.991 18.064C175.991 16.576 175.691 15.28 175.091 14.176C174.491 13.072 173.675 12.232 172.643 11.656C171.635 11.08 170.519 10.792 169.295 10.792C168.095 10.792 166.979 11.092 165.947 11.692C164.939 12.268 164.123 13.12 163.499 14.248C162.899 15.352 162.599 16.636 162.599 18.1C162.599 19.588 162.899 20.896 163.499 22.024C164.123 23.128 164.939 23.98 165.947 24.58C166.979 25.156 168.095 25.444 169.295 25.444C170.519 25.444 171.635 25.156 172.643 24.58C173.675 23.98 174.491 23.128 175.091 22.024C175.691 20.896 175.991 19.576 175.991 18.064Z" fill="url(#paint0_linear_1_2)" fill-opacity="0.2"/>
<defs>
<linearGradient id="paint0_linear_1_2" x1="0" y1="10.5" x2="181" y2="10.5" gradientUnits="userSpaceOnUse">
<stop stop-color="#EA004D"/>
<stop offset="0.5" stop-color="#EB004E"/>
<stop offset="0.75" stop-color="#EA004F"/>
<stop offset="0.875" stop-color="#F43C3F"/>
<stop offset="1" stop-color="#FFB900"/>
</linearGradient>
</defs>
</svg>
