<svg width="160" height="26" viewBox="0 0 160 26" fill="none" xmlns="http://www.w3.org/2000/svg">
<path d="M9.6 9.864H5.92V25H3.008V9.864H0.736V7.464H3.008V6.216C3.008 4.25333 3.50933 2.824 4.512 1.928C5.536 1.01067 7.168 0.551998 9.408 0.551998V2.984C8.128 2.984 7.22133 3.24 6.688 3.752C6.176 4.24267 5.92 5.064 5.92 6.216V7.464H9.6V9.864ZM28.5473 7.464V25H25.6353V22.408C25.0806 23.304 24.3019 24.008 23.2993 24.52C22.3179 25.0107 21.2299 25.256 20.0353 25.256C18.6699 25.256 17.4433 24.9787 16.3553 24.424C15.2673 23.848 14.4033 22.9947 13.7633 21.864C13.1446 20.7333 12.8353 19.3573 12.8353 17.736V7.464H15.7153V17.352C15.7153 19.08 16.1526 20.4133 17.0273 21.352C17.9019 22.2693 19.0966 22.728 20.6113 22.728C22.1686 22.728 23.3953 22.248 24.2913 21.288C25.1873 20.328 25.6353 18.9307 25.6353 17.096V7.464H28.5473ZM39.672 25.288C38.328 25.288 37.1227 25.064 36.056 24.616C34.9893 24.1467 34.1467 23.5067 33.528 22.696C32.9093 21.864 32.568 20.9147 32.504 19.848H35.512C35.5973 20.7227 36.0027 21.4373 36.728 21.992C37.4747 22.5467 38.4453 22.824 39.64 22.824C40.7493 22.824 41.624 22.5787 42.264 22.088C42.904 21.5973 43.224 20.9787 43.224 20.232C43.224 19.464 42.8827 18.8987 42.2 18.536C41.5173 18.152 40.4613 17.7787 39.032 17.416C37.7307 17.0747 36.664 16.7333 35.832 16.392C35.0213 16.0293 34.3173 15.5067 33.72 14.824C33.144 14.12 32.856 13.2027 32.856 12.072C32.856 11.176 33.1227 10.3547 33.656 9.608C34.1893 8.86133 34.9467 8.27467 35.928 7.848C36.9093 7.4 38.0293 7.176 39.288 7.176C41.2293 7.176 42.7973 7.66667 43.992 8.648C45.1867 9.62933 45.8267 10.9733 45.912 12.68H43C42.936 11.7627 42.5627 11.0267 41.88 10.472C41.2187 9.91733 40.3227 9.64 39.192 9.64C38.1467 9.64 37.3147 9.864 36.696 10.312C36.0773 10.76 35.768 11.3467 35.768 12.072C35.768 12.648 35.9493 13.128 36.312 13.512C36.696 13.8747 37.1653 14.1733 37.72 14.408C38.296 14.6213 39.0853 14.8667 40.088 15.144C41.3467 15.4853 42.3707 15.8267 43.16 16.168C43.9493 16.488 44.6213 16.9787 45.176 17.64C45.752 18.3013 46.0507 19.1653 46.072 20.232C46.072 21.192 45.8053 22.056 45.272 22.824C44.7387 23.592 43.9813 24.2 43 24.648C42.04 25.0747 40.9307 25.288 39.672 25.288ZM51.6868 4.616C51.1321 4.616 50.6628 4.424 50.2788 4.04C49.8948 3.656 49.7028 3.18667 49.7028 2.632C49.7028 2.07733 49.8948 1.608 50.2788 1.224C50.6628 0.839999 51.1321 0.647999 51.6868 0.647999C52.2201 0.647999 52.6681 0.839999 53.0308 1.224C53.4148 1.608 53.6068 2.07733 53.6068 2.632C53.6068 3.18667 53.4148 3.656 53.0308 4.04C52.6681 4.424 52.2201 4.616 51.6868 4.616ZM53.0948 7.464V25H50.1828V7.464H53.0948ZM65.7058 25.288C64.0631 25.288 62.5698 24.9147 61.2258 24.168C59.9031 23.4213 58.8578 22.3653 58.0898 21C57.3431 19.6133 56.9698 18.0133 56.9698 16.2C56.9698 14.408 57.3538 12.8293 58.1218 11.464C58.9111 10.0773 59.9778 9.02133 61.3218 8.296C62.6658 7.54933 64.1698 7.176 65.8338 7.176C67.4978 7.176 69.0018 7.54933 70.3458 8.296C71.6898 9.02133 72.7458 10.0667 73.5138 11.432C74.3031 12.7973 74.6978 14.3867 74.6978 16.2C74.6978 18.0133 74.2924 19.6133 73.4818 21C72.6924 22.3653 71.6151 23.4213 70.2498 24.168C68.8844 24.9147 67.3698 25.288 65.7058 25.288ZM65.7058 22.728C66.7511 22.728 67.7324 22.4827 68.6498 21.992C69.5671 21.5013 70.3031 20.7653 70.8578 19.784C71.4338 18.8027 71.7218 17.608 71.7218 16.2C71.7218 14.792 71.4444 13.5973 70.8898 12.616C70.3351 11.6347 69.6098 10.9093 68.7138 10.44C67.8178 9.94933 66.8471 9.704 65.8018 9.704C64.7351 9.704 63.7538 9.94933 62.8578 10.44C61.9831 10.9093 61.2791 11.6347 60.7458 12.616C60.2124 13.5973 59.9458 14.792 59.9458 16.2C59.9458 17.6293 60.2018 18.8347 60.7138 19.816C61.2471 20.7973 61.9511 21.5333 62.8258 22.024C63.7004 22.4933 64.6604 22.728 65.7058 22.728ZM87.0705 7.144C89.2038 7.144 90.9318 7.79467 92.2545 9.096C93.5772 10.376 94.2385 12.232 94.2385 14.664V25H91.3585V15.08C91.3585 13.3307 90.9212 11.9973 90.0465 11.08C89.1718 10.1413 87.9772 9.672 86.4625 9.672C84.9265 9.672 83.6998 10.152 82.7825 11.112C81.8865 12.072 81.4385 13.4693 81.4385 15.304V25H78.5265V7.464H81.4385V9.96C82.0145 9.064 82.7932 8.37067 83.7745 7.88C84.7772 7.38933 85.8758 7.144 87.0705 7.144ZM116.179 2.696V25H113.267V14.888H101.907V25H98.9953V2.696H101.907V12.488H113.267V2.696H116.179ZM136.704 7.464V25H133.792V22.408C133.237 23.304 132.458 24.008 131.456 24.52C130.474 25.0107 129.386 25.256 128.192 25.256C126.826 25.256 125.6 24.9787 124.512 24.424C123.424 23.848 122.56 22.9947 121.92 21.864C121.301 20.7333 120.992 19.3573 120.992 17.736V7.464H123.872V17.352C123.872 19.08 124.309 20.4133 125.184 21.352C126.058 22.2693 127.253 22.728 128.768 22.728C130.325 22.728 131.552 22.248 132.448 21.288C133.344 20.328 133.792 18.9307 133.792 17.096V7.464H136.704ZM144.532 10.728C145.13 9.68267 146.004 8.82933 147.156 8.168C148.308 7.50667 149.62 7.176 151.092 7.176C152.671 7.176 154.09 7.54933 155.348 8.296C156.607 9.04267 157.599 10.0987 158.324 11.464C159.05 12.808 159.412 14.376 159.412 16.168C159.412 17.9387 159.05 19.5173 158.324 20.904C157.599 22.2907 156.596 23.368 155.316 24.136C154.058 24.904 152.65 25.288 151.092 25.288C149.578 25.288 148.244 24.9573 147.092 24.296C145.962 23.6347 145.108 22.792 144.532 21.768V25H141.62V1.32H144.532V10.728ZM156.436 16.168C156.436 14.8453 156.17 13.6933 155.636 12.712C155.103 11.7307 154.378 10.984 153.46 10.472C152.564 9.96 151.572 9.704 150.484 9.704C149.418 9.704 148.426 9.97067 147.508 10.504C146.612 11.016 145.887 11.7733 145.332 12.776C144.799 13.7573 144.532 14.8987 144.532 16.2C144.532 17.5227 144.799 18.6853 145.332 19.688C145.887 20.6693 146.612 21.4267 147.508 21.96C148.426 22.472 149.418 22.728 150.484 22.728C151.572 22.728 152.564 22.472 153.46 21.96C154.378 21.4267 155.103 20.6693 155.636 19.688C156.17 18.6853 156.436 17.512 156.436 16.168Z" fill="url(#paint0_linear_1_2)" fill-opacity="0.2"/>
<defs>
<linearGradient id="paint0_linear_1_2" x1="0" y1="12.5" x2="161" y2="12.5" gradientUnits="userSpaceOnUse">
<stop offset="0.639423" stop-color="#E9004E" stop-opacity="0.542169"/>
<stop offset="0.677885" stop-color="#EA004D" stop-opacity="0"/>
<stop offset="0.75" stop-color="#E9004F" stop-opacity="0.75"/>
<stop offset="0.8749" stop-color="#EB004F" stop-opacity="0.5"/>
<stop offset="0.947115" stop-color="#FF7730" stop-opacity="0.875"/>
<stop offset="1" stop-color="#FFB900"/>
</linearGradient>
</defs>
</svg>
