<svg width="203" height="32" viewBox="0 0 203 32" fill="none" xmlns="http://www.w3.org/2000/svg">
<path d="M12.24 12.68H8.16V31H3.56V12.68H0.96V8.96H3.56V7.4C3.56 4.86666 4.22667 3.02666 5.56 1.88C6.92 0.706666 9.04 0.119999 11.92 0.119999V3.92C10.5333 3.92 9.56 4.18667 9 4.72C8.44 5.22667 8.16 6.12 8.16 7.4V8.96H12.24V12.68ZM36.2413 8.96V31H31.6813V28.4C30.9613 29.3067 30.0146 30.0267 28.8413 30.56C27.6946 31.0667 26.4679 31.32 25.1613 31.32C23.4279 31.32 21.8679 30.96 20.4813 30.24C19.1213 29.52 18.0413 28.4533 17.2413 27.04C16.4679 25.6267 16.0813 23.92 16.0813 21.92V8.96H20.6013V21.24C20.6013 23.2133 21.0946 24.7333 22.0813 25.8C23.0679 26.84 24.4146 27.36 26.1213 27.36C27.8279 27.36 29.1746 26.84 30.1613 25.8C31.1746 24.7333 31.6813 23.2133 31.6813 21.24V8.96H36.2413ZM50.2578 31.36C48.5245 31.36 46.9645 31.0533 45.5778 30.44C44.2178 29.8 43.1378 28.9467 42.3378 27.88C41.5378 26.7867 41.1111 25.5733 41.0578 24.24H45.7778C45.8578 25.1733 46.2978 25.96 47.0978 26.6C47.9245 27.2133 48.9511 27.52 50.1778 27.52C51.4578 27.52 52.4445 27.28 53.1378 26.8C53.8578 26.2933 54.2178 25.6533 54.2178 24.88C54.2178 24.0533 53.8178 23.44 53.0178 23.04C52.2445 22.64 51.0045 22.2 49.2978 21.72C47.6445 21.2667 46.2978 20.8267 45.2578 20.4C44.2178 19.9733 43.3111 19.32 42.5378 18.44C41.7911 17.56 41.4178 16.4 41.4178 14.96C41.4178 13.7867 41.7645 12.72 42.4578 11.76C43.1511 10.7733 44.1378 10 45.4178 9.44C46.7245 8.88 48.2178 8.6 49.8978 8.6C52.4045 8.6 54.4178 9.24 55.9378 10.52C57.4845 11.7733 58.3111 13.4933 58.4178 15.68H53.8578C53.7778 14.6933 53.3778 13.9067 52.6578 13.32C51.9378 12.7333 50.9645 12.44 49.7378 12.44C48.5378 12.44 47.6178 12.6667 46.9778 13.12C46.3378 13.5733 46.0178 14.1733 46.0178 14.92C46.0178 15.5067 46.2311 16 46.6578 16.4C47.0845 16.8 47.6045 17.12 48.2178 17.36C48.8311 17.5733 49.7378 17.8533 50.9378 18.2C52.5378 18.6267 53.8445 19.0667 54.8578 19.52C55.8978 19.9467 56.7911 20.5867 57.5378 21.44C58.2845 22.2933 58.6711 23.4267 58.6978 24.84C58.6978 26.0933 58.3511 27.2133 57.6578 28.2C56.9645 29.1867 55.9778 29.96 54.6978 30.52C53.4445 31.08 51.9645 31.36 50.2578 31.36ZM65.945 6.04C65.1183 6.04 64.425 5.76 63.865 5.2C63.305 4.64 63.025 3.94667 63.025 3.12C63.025 2.29333 63.305 1.6 63.865 1.04C64.425 0.479999 65.1183 0.199998 65.945 0.199998C66.745 0.199998 67.425 0.479999 67.985 1.04C68.545 1.6 68.825 2.29333 68.825 3.12C68.825 3.94667 68.545 4.64 67.985 5.2C67.425 5.76 66.745 6.04 65.945 6.04ZM68.185 8.96V31H63.625V8.96H68.185ZM83.7319 31.36C81.6519 31.36 79.7719 30.8933 78.0919 29.96C76.4119 29 75.0919 27.6667 74.1319 25.96C73.1719 24.2267 72.6919 22.2267 72.6919 19.96C72.6919 17.72 73.1852 15.7333 74.1719 14C75.1585 12.2667 76.5052 10.9333 78.2119 10C79.9185 9.06667 81.8252 8.6 83.9319 8.6C86.0385 8.6 87.9452 9.06667 89.6519 10C91.3585 10.9333 92.7052 12.2667 93.6919 14C94.6785 15.7333 95.1719 17.72 95.1719 19.96C95.1719 22.2 94.6652 24.1867 93.6519 25.92C92.6385 27.6533 91.2519 29 89.4919 29.96C87.7585 30.8933 85.8385 31.36 83.7319 31.36ZM83.7319 27.4C84.9052 27.4 85.9985 27.12 87.0119 26.56C88.0519 26 88.8919 25.16 89.5319 24.04C90.1719 22.92 90.4919 21.56 90.4919 19.96C90.4919 18.36 90.1852 17.0133 89.5719 15.92C88.9585 14.8 88.1452 13.96 87.1319 13.4C86.1185 12.84 85.0252 12.56 83.8519 12.56C82.6785 12.56 81.5852 12.84 80.5719 13.4C79.5852 13.96 78.7985 14.8 78.2119 15.92C77.6252 17.0133 77.3319 18.36 77.3319 19.96C77.3319 22.3333 77.9319 24.1733 79.1319 25.48C80.3585 26.76 81.8919 27.4 83.7319 27.4ZM110.8 8.6C112.533 8.6 114.08 8.96 115.44 9.68C116.826 10.4 117.906 11.4667 118.68 12.88C119.453 14.2933 119.84 16 119.84 18V31H115.32V18.68C115.32 16.7067 114.826 15.2 113.84 14.16C112.853 13.0933 111.506 12.56 109.8 12.56C108.093 12.56 106.733 13.0933 105.72 14.16C104.733 15.2 104.24 16.7067 104.24 18.68V31H99.6797V8.96H104.24V11.48C104.986 10.5733 105.933 9.86667 107.08 9.36C108.253 8.85333 109.493 8.6 110.8 8.6ZM147.856 3.2V31H143.296V18.84H130.216V31H125.656V3.2H130.216V15.12H143.296V3.2H147.856ZM173.819 8.96V31H169.259V28.4C168.539 29.3067 167.593 30.0267 166.419 30.56C165.273 31.0667 164.046 31.32 162.739 31.32C161.006 31.32 159.446 30.96 158.059 30.24C156.699 29.52 155.619 28.4533 154.819 27.04C154.046 25.6267 153.659 23.92 153.659 21.92V8.96H158.179V21.24C158.179 23.2133 158.673 24.7333 159.659 25.8C160.646 26.84 161.993 27.36 163.699 27.36C165.406 27.36 166.753 26.84 167.739 25.8C168.753 24.7333 169.259 23.2133 169.259 21.24V8.96H173.819ZM184.396 12.24C185.169 11.1733 186.223 10.3067 187.556 9.64C188.916 8.94667 190.423 8.6 192.076 8.6C194.023 8.6 195.783 9.06667 197.356 10C198.929 10.9333 200.169 12.2667 201.076 14C201.983 15.7067 202.436 17.6667 202.436 19.88C202.436 22.0933 201.983 24.08 201.076 25.84C200.169 27.5733 198.916 28.9333 197.316 29.92C195.743 30.88 193.996 31.36 192.076 31.36C190.369 31.36 188.849 31.0267 187.516 30.36C186.209 29.6933 185.169 28.84 184.396 27.8V31H179.836V1.4H184.396V12.24ZM197.796 19.88C197.796 18.36 197.476 17.0533 196.836 15.96C196.223 14.84 195.396 14 194.356 13.44C193.343 12.8533 192.249 12.56 191.076 12.56C189.929 12.56 188.836 12.8533 187.796 13.44C186.783 14.0267 185.956 14.88 185.316 16C184.703 17.12 184.396 18.44 184.396 19.96C184.396 21.48 184.703 22.8133 185.316 23.96C185.956 25.08 186.783 25.9333 187.796 26.52C188.836 27.1067 189.929 27.4 191.076 27.4C192.249 27.4 193.343 27.1067 194.356 26.52C195.396 25.9067 196.223 25.0267 196.836 23.88C197.476 22.7333 197.796 21.4 197.796 19.88Z" fill="url(#paint0_linear_1_2)" fill-opacity="0.2"/>
<defs>
<linearGradient id="paint0_linear_1_2" x1="0" y1="9.5" x2="204" y2="9.5" gradientUnits="userSpaceOnUse">
<stop stop-color="#EA004D"/>
<stop offset="0.5" stop-color="#EB004E"/>
<stop offset="0.75" stop-color="#EA004F"/>
<stop offset="0.875" stop-color="#F43C3F"/>
<stop offset="1" stop-color="#FFB900"/>
</linearGradient>
</defs>
</svg>
