<?xml version="1.0" encoding="UTF-8"?>
<svg version="1.1" xmlns="http://www.w3.org/2000/svg" width="500" height="500">
<path d="M0 0 C0.86882812 0.14824219 1.73765625 0.29648438 2.6328125 0.44921875 C4.875 1.3125 4.875 1.3125 6.2734375 3.1640625 C6.875 5.3125 6.875 5.3125 5.375 9 C3.54944742 11.92588564 3.12874674 12.23930382 -0.375 13.25 C-1.2825 13.270625 -2.19 13.29125 -3.125 13.3125 C-3.455 16.6125 -3.785 19.9125 -4.125 23.3125 C1.155 23.6425 6.435 23.9725 11.875 24.3125 C11.92398438 25.61445313 11.97296875 26.91640625 12.0234375 28.2578125 C12.09850629 29.98439471 12.17405233 31.71095622 12.25 33.4375 C12.29640625 34.72140625 12.29640625 34.72140625 12.34375 36.03125 C12.56385018 40.8000872 13.06660483 44.82826807 14.875 49.3125 C17.20794775 49.35491723 19.54202567 49.35342937 21.875 49.3125 C23.51631411 47.67118589 23.0804336 45.73444491 23.15625 43.47265625 C23.19363281 42.49232422 23.23101562 41.51199219 23.26953125 40.50195312 C23.30433594 39.47005859 23.33914062 38.43816406 23.375 37.375 C23.44373045 35.34490603 23.51645021 33.31494198 23.59375 31.28515625 C23.62404297 30.38031494 23.65433594 29.47547363 23.68554688 28.54321289 C23.875 26.3125 23.875 26.3125 24.875 24.3125 C28.835 24.3125 32.795 24.3125 36.875 24.3125 C37.535 25.9625 38.195 27.6125 38.875 29.3125 C39.7825 28.508125 40.69 27.70375 41.625 26.875 C46.43516609 22.61144369 51.74983359 23.04751776 57.875 23.3125 C59.78884271 23.56349576 61.70276103 23.81469784 63.61328125 24.08984375 C68.34848229 24.55600344 73.12244154 24.38378838 77.875 24.3125 C78.71562397 27.41023244 78.96435201 30.09582751 78.875 33.3125 C79.8340625 31.95125 79.8340625 31.95125 80.8125 30.5625 C84.67394596 25.98516799 89.50012607 23.77745941 95.3984375 22.96484375 C102.4853191 22.71407717 108.02568241 24.31191531 113.8125 28.375 C115.875 30.3125 115.875 30.3125 116.875 32.3125 C117.0915625 30.6109375 117.0915625 30.6109375 117.3125 28.875 C117.875 25.3125 117.875 25.3125 118.875 24.3125 C120.64353292 24.21311137 122.41618275 24.18280777 124.1875 24.1875 C125.63576172 24.18363281 125.63576172 24.18363281 127.11328125 24.1796875 C129.875 24.3125 129.875 24.3125 132.1171875 24.87890625 C133.93718379 25.53258099 133.93718379 25.53258099 135.6875 24.375 C138.94672958 22.79194563 141.28073442 22.95307344 144.875 23.3125 C149.84972406 25.08657439 152.77970717 27.02788284 155.875 31.3125 C155.86976318 30.44447754 155.86452637 29.57645508 155.85913086 28.68212891 C155.84210138 25.46549727 155.82955592 22.24888859 155.82006836 19.03222656 C155.8150357 17.63931523 155.80820902 16.2464092 155.79956055 14.85351562 C155.78744848 12.85288754 155.78229588 10.85222112 155.77734375 8.8515625 C155.77210693 7.64709473 155.76687012 6.44262695 155.76147461 5.20166016 C155.875 2.3125 155.875 2.3125 156.875 0.3125 C158.85409398 0.28563447 160.83328971 0.26616625 162.8125 0.25 C163.91464844 0.23839844 165.01679688 0.22679687 166.15234375 0.21484375 C168.875 0.3125 168.875 0.3125 169.875 1.3125 C170.03286308 3.16424706 170.12607356 5.0215911 170.19140625 6.87890625 C170.25424805 8.5659668 170.25424805 8.5659668 170.31835938 10.28710938 C170.35767578 11.47111328 170.39699219 12.65511719 170.4375 13.875 C170.48068359 15.06287109 170.52386719 16.25074219 170.56835938 17.47460938 C170.67483546 20.42044784 170.77684841 23.3663743 170.875 26.3125 C171.63039062 25.82523438 172.38578125 25.33796875 173.1640625 24.8359375 C176.70369526 22.8468067 178.85465102 22.89660183 182.875 23.3125 C187.53059907 24.89066917 190.65743245 26.58012164 193.875 30.3125 C194.205 28.3325 194.535 26.3525 194.875 24.3125 C196.85409398 24.28563447 198.83328971 24.26616625 200.8125 24.25 C201.91464844 24.23839844 203.01679688 24.22679687 204.15234375 24.21484375 C206.875 24.3125 206.875 24.3125 207.875 25.3125 C208.01988463 26.83714933 208.10205052 28.36787892 208.15625 29.8984375 C208.21232422 31.29449219 208.21232422 31.29449219 208.26953125 32.71875 C208.30433594 33.6984375 208.33914063 34.678125 208.375 35.6875 C208.44391899 37.61212648 208.51667101 39.53662055 208.59375 41.4609375 C208.62404297 42.31864746 208.65433594 43.17635742 208.68554688 44.06005859 C208.80004068 46.48029201 208.80004068 46.48029201 209.875 49.3125 C212.515 49.3125 215.155 49.3125 217.875 49.3125 C219.10454622 46.85340755 219.06425376 45.08774195 219.15625 42.33984375 C219.19363281 41.35822266 219.23101562 40.37660156 219.26953125 39.36523438 C219.33997585 37.28450968 219.41028785 35.20378048 219.48046875 33.12304688 C219.51785156 32.14271484 219.55523437 31.16238281 219.59375 30.15234375 C219.62404297 29.24863037 219.65433594 28.34491699 219.68554688 27.41381836 C219.875 25.3125 219.875 25.3125 220.875 24.3125 C222.685285 24.21370435 224.49952727 24.18278486 226.3125 24.1875 C227.30121094 24.18492187 228.28992188 24.18234375 229.30859375 24.1796875 C231.875 24.3125 231.875 24.3125 233.875 25.3125 C233.71386719 24.67699219 233.55273438 24.04148438 233.38671875 23.38671875 C232.70378434 19.28389902 232.6908136 15.27694321 232.6875 11.125 C232.67525391 10.30580078 232.66300781 9.48660156 232.65039062 8.64257812 C232.64517742 6.53123064 232.75223679 4.42028191 232.875 2.3125 C234.875 0.3125 234.875 0.3125 237.1875 0.08203125 C238.5178125 0.10330078 238.5178125 0.10330078 239.875 0.125 C241.2053125 0.13466797 241.2053125 0.13466797 242.5625 0.14453125 C244.875 0.3125 244.875 0.3125 246.875 1.3125 C246.875 9.5625 246.875 17.8125 246.875 26.3125 C249.185 25.3225 251.495 24.3325 253.875 23.3125 C260.12899229 22.61761197 264.74398206 23.54098254 269.875 27.3125 C274.81677998 32.69463661 276.18451508 37.51951544 276.08984375 44.74609375 C275.66851898 49.77900958 273.77587086 53.21143561 270.625 57.0625 C266.0346976 60.81820197 262.13112904 62.66178095 256.1875 62.125 C253.70218855 61.79391943 251.97766347 61.36571202 249.7421875 60.20703125 C249.12601562 59.91183594 248.50984375 59.61664063 247.875 59.3125 C246.7921875 59.745625 246.7921875 59.745625 245.6875 60.1875 C241.74346138 61.76511545 238.07103087 61.47705023 233.875 61.3125 C232.89891783 58.38425348 232.79273332 56.35636724 232.875 53.3125 C232.215 54.240625 231.555 55.16875 230.875 56.125 C227.00528082 60.68458555 222.85580677 61.98355538 217.0078125 62.62890625 C210.2059168 62.8971744 204.6776514 61.99613645 198.875 58.3125 C197.84320661 57.34533796 196.8323733 56.3533825 195.875 55.3125 C195.9059375 56.5190625 195.9059375 56.5190625 195.9375 57.75 C195.875 60.3125 195.875 60.3125 194.875 61.3125 C192.68860547 61.38508946 190.49999611 61.39623783 188.3125 61.375 C186.51619141 61.36146484 186.51619141 61.36146484 184.68359375 61.34765625 C183.75675781 61.33605469 182.82992187 61.32445312 181.875 61.3125 C181.85312622 60.29095825 181.85312622 60.29095825 181.83081055 59.2487793 C181.75637304 56.16527785 181.65969917 53.08286433 181.5625 50 C181.53994141 48.92814453 181.51738281 47.85628906 181.49414062 46.75195312 C181.45869141 45.72392578 181.42324219 44.69589844 181.38671875 43.63671875 C181.34744263 42.2149231 181.34744263 42.2149231 181.30737305 40.7644043 C181.05256568 38.27462242 181.05256568 38.27462242 179.53833008 36.46801758 C177.78343138 34.99459357 177.78343138 34.99459357 174.75 35.5 C173.80125 35.768125 172.8525 36.03625 171.875 36.3125 C170.64545378 38.77159245 170.68574624 40.53725805 170.59375 43.28515625 C170.55636719 44.26677734 170.51898438 45.24839844 170.48046875 46.25976562 C170.41002415 48.34049032 170.33971215 50.42121952 170.26953125 52.50195312 C170.23214844 53.48228516 170.19476563 54.46261719 170.15625 55.47265625 C170.12595703 56.37636963 170.09566406 57.28008301 170.06445312 58.21118164 C169.875 60.3125 169.875 60.3125 168.875 61.3125 C167.03340977 61.41209621 165.18803033 61.44330411 163.34375 61.4453125 C162.22355469 61.44660156 161.10335937 61.44789063 159.94921875 61.44921875 C158.76972656 61.44535156 157.59023437 61.44148438 156.375 61.4375 C154.60576172 61.44330078 154.60576172 61.44330078 152.80078125 61.44921875 C151.12048828 61.44728516 151.12048828 61.44728516 149.40625 61.4453125 C148.37048828 61.44418457 147.33472656 61.44305664 146.26757812 61.44189453 C143.875 61.3125 143.875 61.3125 142.875 60.3125 C142.74179702 58.62957115 142.67161159 56.94155811 142.62890625 55.25390625 C142.59603516 54.22845703 142.56316406 53.20300781 142.52929688 52.14648438 C142.46821146 49.96950419 142.41090563 47.79241458 142.35742188 45.61523438 C142.32326172 44.58849609 142.28910156 43.56175781 142.25390625 42.50390625 C142.2288501 41.55717041 142.20379395 40.61043457 142.17797852 39.63500977 C142.0900501 37.12108576 142.0900501 37.12108576 139.875 35.3125 C136.83503468 35.3190611 136.83503468 35.3190611 133.875 36.3125 C131.91488665 39.24068094 131.64270706 41.57039801 131.71484375 45.04296875 C131.72580078 45.92791016 131.73675781 46.81285156 131.74804688 47.72460938 C131.77995117 49.09842773 131.77995117 49.09842773 131.8125 50.5 C131.84677531 52.32674685 131.87695169 54.15357683 131.90234375 55.98046875 C131.92031006 56.78766357 131.93827637 57.5948584 131.95678711 58.42651367 C131.875 60.3125 131.875 60.3125 130.875 61.3125 C128.87700428 61.41123816 126.87542842 61.44221799 124.875 61.4375 C123.781875 61.44007813 122.68875 61.44265625 121.5625 61.4453125 C118.875 61.3125 118.875 61.3125 117.875 60.3125 C117.50739269 57.98432036 117.17258419 55.6506615 116.875 53.3125 C116.153125 54.075625 115.43125 54.83875 114.6875 55.625 C109.1110435 60.95361399 104.20024075 62.37665953 96.60546875 62.28515625 C90.20554844 61.83814308 85.88925061 59.84058116 80.9375 55.6875 C79.875 54.3125 79.875 54.3125 79.875 52.3125 C79.215 52.3125 78.555 52.3125 77.875 52.3125 C78.37 56.2725 78.37 56.2725 78.875 60.3125 C75.88019083 61.1848412 73.23924089 61.42079766 70.125 61.375 C69.32578125 61.36597656 68.5265625 61.35695313 67.703125 61.34765625 C67.09984375 61.33605469 66.4965625 61.32445312 65.875 61.3125 C64.885 59.3325 64.885 59.3325 63.875 57.3125 C63.318125 57.993125 63.318125 57.993125 62.75 58.6875 C58.36700593 62.48609486 53.04506372 62.73255383 47.4765625 62.6484375 C43.86737869 62.18238674 40.98983542 60.86254102 37.78515625 59.1875 C35.77059505 58.10426868 35.77059505 58.10426868 32.875 58.3125 C31.740625 58.9725 30.60625 59.6325 29.4375 60.3125 C22.68989728 63.7979345 15.02571644 63.17479351 7.875 61.125 C4.0587041 59.66623472 2.01107824 57.87263041 -0.125 54.3125 C-1.37933458 50.54949626 -1.23195422 47.04039091 -1.1875 43.125 C-1.18298828 42.37541016 -1.17847656 41.62582031 -1.17382812 40.85351562 C-1.16206354 39.00647617 -1.14412865 37.15947787 -1.125 35.3125 C-2.115 35.3125 -3.105 35.3125 -4.125 35.3125 C-4.125 43.5625 -4.125 51.8125 -4.125 60.3125 C-7.10380885 61.30543628 -9.14101198 61.44656411 -12.25 61.4375 C-13.58417969 61.44136719 -13.58417969 61.44136719 -14.9453125 61.4453125 C-17.125 61.3125 -17.125 61.3125 -18.125 60.3125 C-18.21237645 58.45880389 -18.23198153 56.60182459 -18.22265625 54.74609375 C-18.21943359 53.62138672 -18.21621094 52.49667969 -18.21289062 51.33789062 C-18.20451172 50.15388672 -18.19613281 48.96988281 -18.1875 47.75 C-18.18298828 46.56212891 -18.17847656 45.37425781 -18.17382812 44.15039062 C-18.16199675 41.20437774 -18.14551287 38.25846319 -18.125 35.3125 C-19.775 34.9825 -21.425 34.6525 -23.125 34.3125 C-23.125 31.3425 -23.125 28.3725 -23.125 25.3125 C-21.475 24.9825 -19.825 24.6525 -18.125 24.3125 C-18.15980469 23.61125 -18.19460937 22.91 -18.23046875 22.1875 C-18.42374475 15.41363654 -18.45026533 9.04760195 -13.73046875 3.74609375 C-9.17046884 -0.3059568 -5.86577081 -1.09436022 0 0 Z M63.875 30.3125 C63.215 31.6325 62.555 32.9525 61.875 34.3125 C58.245 33.9825 54.615 33.6525 50.875 33.3125 C50.875 34.3025 50.875 35.2925 50.875 36.3125 C51.88820313 36.71082031 51.88820313 36.71082031 52.921875 37.1171875 C53.81390625 37.47039062 54.7059375 37.82359375 55.625 38.1875 C56.50671875 38.53554687 57.3884375 38.88359375 58.296875 39.2421875 C60.53172963 40.16999079 62.71067209 41.23033604 64.875 42.3125 C64.875 38.3525 64.875 34.3925 64.875 30.3125 C64.545 30.3125 64.215 30.3125 63.875 30.3125 Z M90.875 39.3125 C90.04150049 42.26909873 90.04150049 42.26909873 90.875 45.3125 C92.79166667 48.39583333 92.79166667 48.39583333 95.875 50.3125 C99.89534924 50.24435849 101.9926825 50.1948175 104.875 47.3125 C105.84525279 44.32088725 105.9760566 42.67461949 105.125 39.625 C103.95378737 37.0268872 103.95378737 37.0268872 100.875 35.3125 C96.28700227 34.58807931 93.98085735 35.9404263 90.875 39.3125 Z M246.875 39.3125 C246.04166667 42.8125 246.04166667 42.8125 246.875 46.3125 C248.80626102 48.99088573 248.80626102 48.99088573 251.875 50.3125 C256.93790678 50.1767894 256.93790678 50.1767894 260.875 47.3125 C261.84525279 44.32088725 261.9760566 42.67461949 261.125 39.625 C259.95378737 37.0268872 259.95378737 37.0268872 256.875 35.3125 C252.2876404 34.58818006 249.94300939 35.89386096 246.875 39.3125 Z M37.875 39.3125 C37.875 42.9425 37.875 46.5725 37.875 50.3125 C39.525 49.9825 41.175 49.6525 42.875 49.3125 C44.22477849 49.94520867 45.55852881 50.61312468 46.875 51.3125 C49.54209069 51.48000414 49.54209069 51.48000414 51.875 51.3125 C51.875 50.3225 51.875 49.3325 51.875 48.3125 C51.19953125 47.99796875 50.5240625 47.6834375 49.828125 47.359375 C40.96814587 43.10863357 40.96814587 43.10863357 37.875 39.3125 Z M36.875 50.3125 C37.875 52.3125 37.875 52.3125 37.875 52.3125 Z " fill="#E60950" transform="translate(81.125,204.6875)"/>
<path d="M0 0 C0.90492188 0.02320313 1.80984375 0.04640625 2.7421875 0.0703125 C3.65226562 0.08835938 4.56234375 0.10640625 5.5 0.125 C6.19867188 0.14820313 6.89734375 0.17140625 7.6171875 0.1953125 C8.1121875 1.6803125 8.1121875 1.6803125 8.6171875 3.1953125 C3.1721875 2.7003125 3.1721875 2.7003125 -2.3828125 2.1953125 C-2.3828125 21.3353125 -2.3828125 40.4753125 -2.3828125 60.1953125 C-1.0628125 60.5253125 0.2571875 60.8553125 1.6171875 61.1953125 C-0.0328125 61.1953125 -1.6828125 61.1953125 -3.3828125 61.1953125 C-4.35889467 58.26706598 -4.46507918 56.23917974 -4.3828125 53.1953125 C-5.0428125 54.1234375 -5.7028125 55.0515625 -6.3828125 56.0078125 C-10.26805014 60.58568303 -14.45244943 61.95272003 -20.35546875 62.44140625 C-25.72268127 62.55447021 -30.39571179 62.4118017 -35.3828125 60.1953125 C-34.3928125 59.7003125 -34.3928125 59.7003125 -33.3828125 59.1953125 C-32.73067958 57.17067995 -32.73067958 57.17067995 -32.3828125 55.1953125 C-31.7228125 55.1953125 -31.0628125 55.1953125 -30.3828125 55.1953125 C-30.2590625 54.5765625 -30.1353125 53.9578125 -30.0078125 53.3203125 C-29.3828125 51.1953125 -29.3828125 51.1953125 -27.3828125 49.1953125 C-24.69441865 48.92539344 -22.09139314 49.10793893 -19.3828125 49.1953125 C-18.15326628 46.73622005 -18.19355874 44.97055445 -18.1015625 42.22265625 C-18.06417969 41.24103516 -18.02679688 40.25941406 -17.98828125 39.24804688 C-17.91783665 37.16732218 -17.84752465 35.08659298 -17.77734375 33.00585938 C-17.73996094 32.02552734 -17.70257813 31.04519531 -17.6640625 30.03515625 C-17.61862305 28.67958618 -17.61862305 28.67958618 -17.57226562 27.29663086 C-17.3828125 25.1953125 -17.3828125 25.1953125 -16.3828125 24.1953125 C-14.5725275 24.09651685 -12.75828523 24.06559736 -10.9453125 24.0703125 C-9.95660156 24.06773437 -8.96789062 24.06515625 -7.94921875 24.0625 C-5.3828125 24.1953125 -5.3828125 24.1953125 -3.3828125 25.1953125 C-3.54394531 24.55980469 -3.70507812 23.92429688 -3.87109375 23.26953125 C-4.55402816 19.16671152 -4.5669989 15.15975571 -4.5703125 11.0078125 C-4.58255859 10.18861328 -4.59480469 9.36941406 -4.60742188 8.52539062 C-4.61263508 6.41404314 -4.50557571 4.30309441 -4.3828125 2.1953125 C-2.3828125 0.1953125 -2.3828125 0.1953125 0 0 Z " fill="#E70C51" transform="translate(318.3828125,204.8046875)"/>
<path d="M0 0 C3.63 0 7.26 0 11 0 C11 1.65 11 3.3 11 5 C11.66 5 12.32 5 13 5 C13.33 4.01 13.66 3.02 14 2 C15.65 2 17.3 2 19 2 C19 2.99 19 3.98 19 5 C20.32 5 21.64 5 23 5 C23 6.98 23 8.96 23 11 C22.34 11 21.68 11 21 11 C20.67 11.99 20.34 12.98 20 14 C19.01 13.01 18.02 12.02 17 11 C17 11.66 17 12.32 17 13 C13.25 14.125 13.25 14.125 11 13 C10.8453125 14.918125 10.8453125 14.918125 10.6875 16.875 C10.51171875 19.0546875 10.51171875 19.0546875 10 21 C7 23 7 23 0 22 C0 14.74 0 7.48 0 0 Z " fill="#EA014C" transform="translate(107,231)"/>
<path d="M0 0 C1.4540625 0.0309375 1.4540625 0.0309375 2.9375 0.0625 C4.1582022 6.43727818 3.84881144 12.54097442 3.5 19 C3.44779297 20.06541016 3.39558594 21.13082031 3.34179688 22.22851562 C3.21296928 24.84020229 3.07804502 27.4514221 2.9375 30.0625 C1.6175 30.3925 0.2975 30.7225 -1.0625 31.0625 C-1.0625 30.4025 -1.0625 29.7425 -1.0625 29.0625 C-1.7225 29.0625 -2.3825 29.0625 -3.0625 29.0625 C-4.18035113 31.18035113 -4.18035113 31.18035113 -5.0625 34.0625 C-6.0525 34.0625 -7.0425 34.0625 -8.0625 34.0625 C-8.0625 28.4525 -8.0625 22.8425 -8.0625 17.0625 C-7.4025 16.7325 -6.7425 16.4025 -6.0625 16.0625 C-6.3925 14.7425 -6.7225 13.4225 -7.0625 12.0625 C-6.4025 11.7325 -5.7425 11.4025 -5.0625 11.0625 C-4.7325 10.4025 -4.4025 9.7425 -4.0625 9.0625 C-3.0625 7.0625 -3.0625 7.0625 -1.0625 6.0625 C-0.83640663 3.93885519 -0.83640663 3.93885519 -2.5625 2.4375 C-3.0575 1.98375 -3.5525 1.53 -4.0625 1.0625 C-3.0625 0.0625 -3.0625 0.0625 0 0 Z " fill="#E9024C" transform="translate(155.0625,230.9375)"/>
<path d="M0 0 C3.4375 0.5625 3.4375 0.5625 5.8125 2.1875 C7.82256043 5.12528062 8.36483979 7.0021496 8.4375 10.5625 C7.29970128 12.88981556 6.26909286 14.73090714 4.4375 16.5625 C1.38397067 16.996064 -1.51283653 17.03167899 -4.5625 16.5625 C-7.62268871 14.02478253 -8.39700185 12.44515681 -9.125 8.5625 C-8.10942024 3.14607461 -5.36154281 0.84655939 0 0 Z " fill="#ED014C" transform="translate(375.5625,249.4375)"/>
<path d="M0 0 C6.6 0 13.2 0 20 0 C20.33 1.32 20.66 2.64 21 4 C20.01 4.495 20.01 4.495 19 5 C19 4.01 19 3.02 19 2 C17.02 2.33 15.04 2.66 13 3 C13.99 3.99 14.98 4.98 16 6 C15 9 15 9 13 10 C11.86649466 12.01669827 11.86649466 12.01669827 11 14 C10.34 14 9.68 14 9 14 C9.66 15.65 10.32 17.3 11 19 C10.34 19.33 9.68 19.66 9 20 C8.68758545 22.71446979 8.48663408 25.33909361 8.375 28.0625 C8.31699219 29.20041992 8.31699219 29.20041992 8.2578125 30.36132812 C8.16326438 32.24047195 8.08053244 34.12020336 8 36 C5.62293582 32.33460332 5.94905683 29.50943165 6.375 25.25 C6.54128906 23.49429688 6.54128906 23.49429688 6.7109375 21.703125 C6.80632812 20.81109375 6.90171875 19.9190625 7 19 C5.02 18.67 3.04 18.34 1 18 C1 17.34 1 16.68 1 16 C0.01 16 -0.98 16 -2 16 C-2 15.34 -2 14.68 -2 14 C-2.66 13.67 -3.32 13.34 -4 13 C-0.04179141 13.56545837 2.6659053 14.80902348 6 17 C6 14.03 6 11.06 6 8 C5.01 9.485 5.01 9.485 4 11 C0.37 10.34 -3.26 9.68 -7 9 C-7 8.67 -7 8.34 -7 8 C-3.37 8.33 0.26 8.66 4 9 C4 7.68 4 6.36 4 5 C2.68 5.33 1.36 5.66 0 6 C0 4.02 0 2.04 0 0 Z " fill="#E4205E" transform="translate(139,229)"/>
<path d="M0 0 C2.42587041 2.81713983 2.9865941 4.343111 3.0625 8.0625 C2 11 2 11 -0.6875 13.5 C-4 15 -4 15 -7.1875 14.4375 C-11.59574468 12.18439716 -11.59574468 12.18439716 -13 10 C-13.58817732 6.13483474 -13.32063332 4.49753447 -11.1875 1.1875 C-7.29728441 -2.70271559 -4.76601536 -2.18442371 0 0 Z " fill="#E8014B" transform="translate(158,209)"/>
<path d="M0 0 C0.66 0 1.32 0 2 0 C2.33 8.25 2.66 16.5 3 25 C3.99 25 4.98 25 6 25 C5.4740625 25.8971875 5.4740625 25.8971875 4.9375 26.8125 C3.66695302 29.10813214 3.66695302 29.10813214 5 32 C6.65 32 8.3 32 10 32 C10 31.34 10 30.68 10 30 C13 31 13 31 14.17529297 33.2175293 C15.04310543 36.14543297 15.22935519 38.47271011 15.1953125 41.51953125 C15.18564453 43.0519043 15.18564453 43.0519043 15.17578125 44.61523438 C15.15902344 45.67033203 15.14226562 46.72542969 15.125 47.8125 C15.11597656 48.88693359 15.10695313 49.96136719 15.09765625 51.06835938 C15.07415306 53.71246854 15.04129575 56.35611872 15 59 C15.99 59.33 16.98 59.66 18 60 C16.68 60 15.36 60 14 60 C13.98541748 59.31897217 13.97083496 58.63794434 13.95581055 57.9362793 C13.88137304 54.85277785 13.78469917 51.77036433 13.6875 48.6875 C13.66494141 47.61564453 13.64238281 46.54378906 13.61914062 45.43945312 C13.58369141 44.41142578 13.54824219 43.38339844 13.51171875 42.32421875 C13.47244263 40.9024231 13.47244263 40.9024231 13.43237305 39.4519043 C13.17756568 36.96212242 13.17756568 36.96212242 11.66333008 35.15551758 C9.90843138 33.68209357 9.90843138 33.68209357 6.875 34.1875 C5.92625 34.455625 4.9775 34.72375 4 35 C2.76939579 37.46120841 2.7942277 39.25776866 2.68359375 42.0078125 C2.64169922 42.99394531 2.59980469 43.98007813 2.55664062 44.99609375 C2.51732422 46.02863281 2.47800781 47.06117188 2.4375 48.125 C2.39431641 49.16527344 2.35113281 50.20554687 2.30664062 51.27734375 C2.2003712 53.85142528 2.09833417 56.42560508 2 59 C1.67 59 1.34 59 1 59 C1.00523682 58.20827393 1.01047363 57.41654785 1.01586914 56.60083008 C1.03668937 53.00472816 1.04967627 49.40863895 1.0625 45.8125 C1.07087891 44.56662109 1.07925781 43.32074219 1.08789062 42.03710938 C1.09111328 40.83505859 1.09433594 39.63300781 1.09765625 38.39453125 C1.10551147 36.73707886 1.10551147 36.73707886 1.11352539 35.04614258 C1.08381029 32.07355353 1.08381029 32.07355353 0.5 29.5 C-0.10252777 26.48736116 -0.11221392 23.67713654 -0.09765625 20.60546875 C-0.09443359 19.40341797 -0.09121094 18.20136719 -0.08789062 16.96289062 C-0.07951172 15.71701172 -0.07113281 14.47113281 -0.0625 13.1875 C-0.05798828 11.92228516 -0.05347656 10.65707031 -0.04882812 9.35351562 C-0.03706251 6.2356289 -0.02062272 3.11783867 0 0 Z " fill="#CB1F55" transform="translate(249,206)"/>
<path d="M0 0 C0.90492188 0.02320313 1.80984375 0.04640625 2.7421875 0.0703125 C4.10730469 0.09738281 4.10730469 0.09738281 5.5 0.125 C6.19867188 0.14820313 6.89734375 0.17140625 7.6171875 0.1953125 C7.9471875 1.1853125 8.2771875 2.1753125 8.6171875 3.1953125 C4.9871875 2.8653125 1.3571875 2.5353125 -2.3828125 2.1953125 C-2.3828125 21.3353125 -2.3828125 40.4753125 -2.3828125 60.1953125 C-1.0628125 60.5253125 0.2571875 60.8553125 1.6171875 61.1953125 C-0.0328125 61.1953125 -1.6828125 61.1953125 -3.3828125 61.1953125 C-4.37334978 58.22370065 -4.3828125 56.28059258 -4.3828125 53.1953125 C-4.54507324 52.59356201 -4.70733398 51.99181152 -4.87451172 51.37182617 C-5.47617444 48.79554224 -5.51243806 46.45397909 -5.515625 43.80859375 C-5.51691406 42.78830078 -5.51820313 41.76800781 -5.51953125 40.71679688 C-5.51373047 39.12834961 -5.51373047 39.12834961 -5.5078125 37.5078125 C-5.51167969 36.43724609 -5.51554687 35.36667969 -5.51953125 34.26367188 C-5.51824219 33.24724609 -5.51695312 32.23082031 -5.515625 31.18359375 C-5.51449707 30.25071533 -5.51336914 29.31783691 -5.51220703 28.35668945 C-5.3828125 26.1953125 -5.3828125 26.1953125 -4.3828125 25.1953125 C-4.31997245 23.51026128 -4.32343673 21.82263703 -4.35546875 20.13671875 C-4.36771484 19.11126953 -4.37996094 18.08582031 -4.39257812 17.02929688 C-4.4276725 14.85214596 -4.46672112 12.67505512 -4.50976562 10.49804688 C-4.52072266 9.47130859 -4.53167969 8.44457031 -4.54296875 7.38671875 C-4.55980713 6.43998291 -4.57664551 5.49324707 -4.59399414 4.51782227 C-4.29155755 1.19171906 -3.31864328 0.27201994 0 0 Z " fill="#E72964" transform="translate(318.3828125,204.8046875)"/>
<path d="M0 0 C0 0.33 0 0.66 0 1 C-2.97 1.66 -5.94 2.32 -9 3 C-8.67 4.32 -8.34 5.64 -8 7 C-7.01 7 -6.02 7 -5 7 C-5 8.32 -5 9.64 -5 11 C-6.134375 11.433125 -7.26875 11.86625 -8.4375 12.3125 C-9.613125 12.869375 -10.78875 13.42625 -12 14 C-12.96088383 16.88265149 -13.11670941 18.67662271 -13.09765625 21.66796875 C-13.09443359 22.56064453 -13.09121094 23.45332031 -13.08789062 24.37304688 C-13.07951172 25.30181641 -13.07113281 26.23058594 -13.0625 27.1875 C-13.05798828 28.12787109 -13.05347656 29.06824219 -13.04882812 30.03710938 C-13.03704626 32.35813712 -13.02059558 34.67903644 -13 37 C-15.475 37.495 -15.475 37.495 -18 38 C-16.515 37.505 -16.515 37.505 -15 37 C-15 29.41 -15 21.82 -15 14 C-15.66 14 -16.32 14 -17 14 C-17.33 12.68 -17.66 11.36 -18 10 C-17.01 10 -16.02 10 -15 10 C-14.731875 9.071875 -14.46375 8.14375 -14.1875 7.1875 C-13.07632183 4.20486385 -12.47545451 2.88134543 -10 1 C-6.52674819 -0.1577506 -3.63932552 -0.06866652 0 0 Z " fill="#DD2D68" transform="translate(226,228)"/>
<path d="M0 0 C1.65322266 0.01740234 1.65322266 0.01740234 3.33984375 0.03515625 C4.99693359 0.04869141 4.99693359 0.04869141 6.6875 0.0625 C7.54214844 0.07410156 8.39679688 0.08570313 9.27734375 0.09765625 C9.60734375 1.41765625 9.93734375 2.73765625 10.27734375 4.09765625 C9.28734375 4.59265625 9.28734375 4.59265625 8.27734375 5.09765625 C8.27734375 4.10765625 8.27734375 3.11765625 8.27734375 2.09765625 C6.29734375 2.42765625 4.31734375 2.75765625 2.27734375 3.09765625 C3.26734375 4.08765625 4.25734375 5.07765625 5.27734375 6.09765625 C4.27734375 9.09765625 4.27734375 9.09765625 2.27734375 10.09765625 C1.14383841 12.11435452 1.14383841 12.11435452 0.27734375 14.09765625 C-0.38265625 14.09765625 -1.04265625 14.09765625 -1.72265625 14.09765625 C-1.06265625 15.74765625 -0.40265625 17.39765625 0.27734375 19.09765625 C-0.71265625 19.09765625 -1.70265625 19.09765625 -2.72265625 19.09765625 C-2.72265625 14.43098958 -2.72265625 9.76432292 -2.72265625 5.09765625 C-2.90828125 4.37578125 -3.09390625 3.65390625 -3.28515625 2.91015625 C-3.42953125 2.31203125 -3.57390625 1.71390625 -3.72265625 1.09765625 C-2.72265625 0.09765625 -2.72265625 0.09765625 0 0 Z " fill="#E5034B" transform="translate(149.72265625,228.90234375)"/>
<path d="M0 0 C0.33 0 0.66 0 1 0 C1.33 3.3 1.66 6.6 2 10 C3.32 9.67 4.64 9.34 6 9 C7.75 10.4375 7.75 10.4375 9 12 C7.02 12 5.04 12 3 12 C2.19032562 14.91482778 1.78154007 16.46113217 2.9375 19.3125 C3.4634375 20.1478125 3.4634375 20.1478125 4 21 C3.236875 20.67 2.47375 20.34 1.6875 20 C-0.99069135 18.82563314 -0.99069135 18.82563314 -4 19 C-5.134375 19.66 -6.26875 20.32 -7.4375 21 C-12.71676497 23.76206442 -18.170546 23.71619006 -24 23 C-26.359375 21.9765625 -26.359375 21.9765625 -28 21 C-26.77023438 20.97421875 -25.54046875 20.9484375 -24.2734375 20.921875 C-22.64059068 20.86556994 -21.00777955 20.80822315 -19.375 20.75 C-18.16263672 20.72873047 -18.16263672 20.72873047 -16.92578125 20.70703125 C-10.45409561 20.4439546 -6.65889438 18.65889438 -2 14 C-1.54152311 11.63969304 -1.17856869 9.2601826 -0.875 6.875 C-0.70742187 5.59367188 -0.53984375 4.31234375 -0.3671875 2.9921875 C-0.24601562 2.00476563 -0.12484375 1.01734375 0 0 Z M0 11 C1 13 1 13 1 13 Z " fill="#D03D6C" transform="translate(118,244)"/>
<path d="M0 0 C0.66 0.33 1.32 0.66 2 1 C2 9.58 2 18.16 2 27 C-1.26881973 27.81720493 -3.46999069 28.11073543 -6.75 28.0625 C-7.54921875 28.05347656 -8.3484375 28.04445313 -9.171875 28.03515625 C-9.77515625 28.02355469 -10.3784375 28.01195312 -11 28 C-8.53846154 23.2 -8.53846154 23.2 -5.8125 22.1875 C-5.214375 22.125625 -4.61625 22.06375 -4 22 C-4 22.66 -4 23.32 -4 24 C-3.01 23.67 -2.02 23.34 -1 23 C-0.67 15.41 -0.34 7.82 0 0 Z " fill="#EC2B69" transform="translate(158,238)"/>
<path d="M0 0 C3.625 0.375 3.625 0.375 7 1 C7.36666667 6.5 7.36666667 6.5 5.625 8.875 C4 10 4 10 2 10 C1.67 10.99 1.34 11.98 1 13 C-1.5224581 10.37243948 -1.99258956 9.0859611 -2.3125 5.375 C-2 2 -2 2 0 0 Z " fill="#E9014C" transform="translate(371,252)"/>
<path d="M0 0 C0.99 0.66 1.98 1.32 3 2 C2.67 3.98 2.34 5.96 2 8 C3.32 8 4.64 8 6 8 C6.33 9.32 6.66 10.64 7 12 C4 14 4 14 0.9375 13.9375 C-2 13 -2 13 -3.4375 10.6875 C-4.0296299 7.85843491 -4.10546791 6.63611579 -3 4 C-1.4375 1.75 -1.4375 1.75 0 0 Z " fill="#E8034C" transform="translate(151,208)"/>
<path d="M0 0 C1.97909398 -0.02686553 3.95828971 -0.04633375 5.9375 -0.0625 C7.03964844 -0.07410156 8.14179688 -0.08570313 9.27734375 -0.09765625 C12 0 12 0 13 1 C13.15764405 2.77869726 13.25100677 4.56318476 13.31640625 6.34765625 C13.37924805 7.96704102 13.37924805 7.96704102 13.44335938 9.61914062 C13.48267578 10.75544922 13.52199219 11.89175781 13.5625 13.0625 C13.60568359 14.20267578 13.64886719 15.34285156 13.69335938 16.51757812 C13.79982839 19.34492195 13.90184207 22.17235738 14 25 C11.51942372 22.51942372 11.70980995 21.63807536 11.5859375 18.2109375 C11.54726563 17.26992187 11.50859375 16.32890625 11.46875 15.359375 C11.4378125 14.37453125 11.406875 13.3896875 11.375 12.375 C11.33632813 11.38242188 11.29765625 10.38984375 11.2578125 9.3671875 C11.16337339 6.91177058 11.08059119 4.45591043 11 2 C7.7 2 4.4 2 1 2 C1 3.65 1 5.3 1 7 C0.67 7 0.34 7 0 7 C0 4.69 0 2.38 0 0 Z " fill="#CA315E" transform="translate(276,229)"/>
<path d="M0 0 C5.28 0 10.56 0 16 0 C16.33 7.59 16.66 15.18 17 23 C14.64641749 20.64641749 14.72128096 20.07031606 14.5859375 16.8671875 C14.54726562 16.06152344 14.50859375 15.25585938 14.46875 14.42578125 C14.4378125 13.58402344 14.406875 12.74226562 14.375 11.875 C14.33632812 11.02550781 14.29765625 10.17601562 14.2578125 9.30078125 C14.16343506 7.20088316 14.08062414 5.10047109 14 3 C13.15695313 2.95101562 12.31390625 2.90203125 11.4453125 2.8515625 C9.80175781 2.73941406 9.80175781 2.73941406 8.125 2.625 C7.03445312 2.55539063 5.94390625 2.48578125 4.8203125 2.4140625 C2 2 2 2 0 0 Z " fill="#D33664" transform="translate(77,229)"/>
<path d="M0 0 C0.99 0.66 1.98 1.32 3 2 C2.67 2.66 2.34 3.32 2 4 C1.01 3.34 0.02 2.68 -1 2 C-5.34170904 2.0931435 -5.34170904 2.0931435 -9 4 C-9.33856828 9.32673036 -9.33856828 9.32673036 -7 14 C-5.03638136 14.57748803 -5.03638136 14.57748803 -2.875 14.6875 C-1.59625 14.790625 -0.3175 14.89375 1 15 C1 15.33 1 15.66 1 16 C-2.05290263 16.29354833 -4.95457539 16.41409388 -8 16 C-11.06018871 13.46228253 -11.83450185 11.88265681 -12.5625 8 C-11.24010087 0.94720464 -6.65626285 -0.86284889 0 0 Z " fill="#C82E5B" transform="translate(379,250)"/>
<path d="M0 0 C-4.51857965 4.51857965 -10.69788313 3.88294321 -16.6875 4.1875 C-20.12273136 3.99305294 -22.80643477 3.24626936 -26 2 C-21.88642013 0.87384668 -17.80411734 0.6584553 -13.5625 0.4375 C-12.81162109 0.39431641 -12.06074219 0.35113281 -11.28710938 0.30664062 C-7.51990966 0.09790397 -3.77460268 -0.05252926 0 0 Z " fill="#DF4675" transform="translate(309,263)"/>
<path d="M0 0 C2.97 0.495 2.97 0.495 6 1 C6.25 7.625 6.25 7.625 4 11 C0.37 10.34 -3.26 9.68 -7 9 C-7 8.67 -7 8.34 -7 8 C-3.37 8.33 0.26 8.66 4 9 C4 7.68 4 6.36 4 5 C2.68 5.33 1.36 5.66 0 6 C0 4.02 0 2.04 0 0 Z " fill="#D21C56" transform="translate(139,229)"/>
<path d="M0 0 C1.4540625 0.0309375 1.4540625 0.0309375 2.9375 0.0625 C2.6075 2.3725 2.2775 4.6825 1.9375 7.0625 C-2.8125 7.1875 -2.8125 7.1875 -5.0625 6.0625 C-3.98897059 0.08140756 -3.98897059 0.08140756 0 0 Z " fill="#EA024C" transform="translate(257.0625,230.9375)"/>
<path d="M0 0 C0.66 0.33 1.32 0.66 2 1 C1.484375 1.495 0.96875 1.99 0.4375 2.5 C-1.7171081 6.24714452 -0.76845154 8.80844613 0 13 C1.65 13.33 3.3 13.66 5 14 C5 14.66 5 15.32 5 16 C-2.10526316 13.94736842 -2.10526316 13.94736842 -4 11 C-4.60839155 7.00199836 -4.33251303 5.47798748 -2 2.125 C-1.34 1.42375 -0.68 0.7225 0 0 Z " fill="#D42A61" transform="translate(149,208)"/>
<path d="M0 0 C0.90492188 0.02320313 1.80984375 0.04640625 2.7421875 0.0703125 C4.10730469 0.09738281 4.10730469 0.09738281 5.5 0.125 C6.19867188 0.14820313 6.89734375 0.17140625 7.6171875 0.1953125 C7.9471875 1.1853125 8.2771875 2.1753125 8.6171875 3.1953125 C4.9871875 3.1953125 1.3571875 3.1953125 -2.3828125 3.1953125 C-2.7128125 8.8053125 -3.0428125 14.4153125 -3.3828125 20.1953125 C-3.7128125 20.1953125 -4.0428125 20.1953125 -4.3828125 20.1953125 C-4.43660476 17.23673841 -4.47638343 14.27913529 -4.5078125 11.3203125 C-4.52457031 10.47855469 -4.54132813 9.63679687 -4.55859375 8.76953125 C-4.56503906 7.96386719 -4.57148438 7.15820312 -4.578125 6.328125 C-4.59383545 5.21268311 -4.59383545 5.21268311 -4.60986328 4.07470703 C-4.23650913 0.98429813 -2.99225259 0.24526661 0 0 Z " fill="#EA94AB" transform="translate(318.3828125,204.8046875)"/>
<path d="M0 0 C1.37478516 0.01740234 1.37478516 0.01740234 2.77734375 0.03515625 C3.69644531 0.04417969 4.61554688 0.05320313 5.5625 0.0625 C6.27277344 0.07410156 6.98304687 0.08570313 7.71484375 0.09765625 C7.38484375 0.75765625 7.05484375 1.41765625 6.71484375 2.09765625 C3.65234375 2.72265625 3.65234375 2.72265625 0.71484375 3.09765625 C0.66585937 3.80792969 0.616875 4.51820313 0.56640625 5.25 C0.49164063 6.16910156 0.416875 7.08820313 0.33984375 8.03515625 C0.23542969 9.40994141 0.23542969 9.40994141 0.12890625 10.8125 C-0.00773437 11.56660156 -0.144375 12.32070312 -0.28515625 13.09765625 C-1.27515625 13.59265625 -1.27515625 13.59265625 -2.28515625 14.09765625 C-2.26453125 12.88078125 -2.24390625 11.66390625 -2.22265625 10.41015625 C-2.21115793 7.16762974 -2.61143728 4.27375995 -3.28515625 1.09765625 C-2.28515625 0.09765625 -2.28515625 0.09765625 0 0 Z " fill="#D13561" transform="translate(77.28515625,214.90234375)"/>
<path d="M0 0 C1.11375 0.3403125 1.11375 0.3403125 2.25 0.6875 C2.25 1.6775 2.25 2.6675 2.25 3.6875 C1.59 3.6875 0.93 3.6875 0.25 3.6875 C-0.08 5.0075 -0.41 6.3275 -0.75 7.6875 C-1.74 7.3575 -2.73 7.0275 -3.75 6.6875 C-3.42 5.6975 -3.09 4.7075 -2.75 3.6875 C-4.07 3.3575 -5.39 3.0275 -6.75 2.6875 C-4.29511132 0.41445492 -3.41240272 -0.38777304 0 0 Z " fill="#DE1054" transform="translate(128.75,229.3125)"/>
<path d="M0 0 C5.87711622 -0.48975968 10.09611773 0.62928552 15 4 C15.99 5.485 15.99 5.485 17 7 C14.33579484 7 12.47739354 6.90837763 10 6 C9.67 5.01 9.34 4.02 9 3 C6.89415562 2.19436362 6.89415562 2.19436362 4.4375 1.8125 C3.61121094 1.65394531 2.78492188 1.49539062 1.93359375 1.33203125 C1.29550781 1.22246094 0.65742188 1.11289063 0 1 C0 0.67 0 0.34 0 0 Z " fill="#D52B5E" transform="translate(336,228)"/>
<path d="M0 0 C3.52394445 0.86140864 5.53856372 1.46413851 7.9375 4.25 C9.23052342 7.59664885 8.87794657 9.56802703 8 13 C7.67 13 7.34 13 7 13 C6.67 10.03 6.34 7.06 6 4 C4.68 4.33 3.36 4.66 2 5 C1.34 3.35 0.68 1.7 0 0 Z " fill="#D13869" transform="translate(152,207)"/>
<path d="M0 0 C3.83032799 0.29464061 6.35234913 0.53045312 9.5 2.8125 C11 5 11 5 10.75 7.25 C10.5025 7.8275 10.255 8.405 10 9 C10 8.01 10 7.02 10 6 C9.01 6 8.02 6 7 6 C6.67 5.01 6.34 4.02 6 3 C4.05396726 2.40929986 4.05396726 2.40929986 2 2 C1.34 1.34 0.68 0.68 0 0 Z " fill="#D90D4D" transform="translate(373,251)"/>
<path d="M0 0 C0.99 0 1.98 0 3 0 C2 3 2 3 0.15234375 4.16796875 C-0.57855469 4.50441406 -1.30945313 4.84085937 -2.0625 5.1875 C-2.79597656 5.53167969 -3.52945312 5.87585938 -4.28515625 6.23046875 C-4.85105469 6.48441406 -5.41695313 6.73835938 -6 7 C-6.99 6.34 -7.98 5.68 -9 5 C-7.35 5 -5.7 5 -4 5 C-4 4.34 -4 3.68 -4 3 C-3.01 3 -2.02 3 -1 3 C-0.67 2.01 -0.34 1.02 0 0 Z " fill="#DB3A6B" transform="translate(349,260)"/>
<path d="M0 0 C0.66 1.32 1.32 2.64 2 4 C1.01 4.495 1.01 4.495 0 5 C-0.65772428 8.02934491 -0.65772428 8.02934491 -1 11 C-1.66 11 -2.32 11 -3 11 C-3 8.36 -3 5.72 -3 3 C-2.34 3 -1.68 3 -1 3 C-0.67 2.01 -0.34 1.02 0 0 Z " fill="#E51556" transform="translate(121,233)"/>
<path d="M0 0 C3.96 0 7.92 0 12 0 C12.33 1.32 12.66 2.64 13 4 C12.01 4.495 12.01 4.495 11 5 C11 4.01 11 3.02 11 2 C7.37 1.67 3.74 1.34 0 1 C0 0.67 0 0.34 0 0 Z " fill="#DD5174" transform="translate(147,229)"/>
<path d="M0 0 C2.875 0.25 2.875 0.25 6 1 C7.375 3.0625 7.375 3.0625 8 5 C7.01 6.32 6.02 7.64 5 9 C5 7.35 5 5.7 5 4 C4.34 3.67 3.68 3.34 3 3 C1.9805881 2.01979625 0.97753644 1.02196992 0 0 Z " fill="#CF194F" transform="translate(80,205)"/>
<path d="M0 0 C2 2 2 2 2 5 C2.99 5 3.98 5 5 5 C4.67 5.66 4.34 6.32 4 7 C1.36 5.68 -1.28 4.36 -4 3 C-2.68 2.01 -1.36 1.02 0 0 Z " fill="#D81C57" transform="translate(332,260)"/>
<path d="M0 0 C0.99 0.33 1.98 0.66 3 1 C3.309375 1.825 3.61875 2.65 3.9375 3.5 C4.288125 4.325 4.63875 5.15 5 6 C7.04105639 6.88693303 7.04105639 6.88693303 9 7 C9 7.66 9 8.32 9 9 C5.45529741 8.70460812 4.21784705 8.22373481 1.6875 5.625 C0 3 0 3 0 0 Z " fill="#D93061" transform="translate(81,256)"/>
<path d="M0 0 C0.66 0.33 1.32 0.66 2 1 C2 1.66 2 2.32 2 3 C4.97 3 7.94 3 11 3 C11 3.33 11 3.66 11 4 C6.71 4 2.42 4 -2 4 C-2.33 3.01 -2.66 2.02 -3 1 C-2.01 0.67 -1.02 0.34 0 0 Z " fill="#EA7193" transform="translate(237,262)"/>
<path d="M0 0 C0.66 0 1.32 0 2 0 C1.125 3.875 1.125 3.875 0 5 C-2.33297433 5.04092937 -4.66705225 5.04241723 -7 5 C-5.75 3.4375 -5.75 3.4375 -4 2 C-1.8125 2.3125 -1.8125 2.3125 0 3 C0 2.01 0 1.02 0 0 Z " fill="#DA104F" transform="translate(381,260)"/>
<path d="M0 0 C1.32 0 2.64 0 4 0 C4.144375 0.78375 4.28875 1.5675 4.4375 2.375 C4.87798925 4.96421018 4.87798925 4.96421018 6 7 C1.32307692 5.52307692 1.32307692 5.52307692 -0.3125 2.875 C-0.539375 2.25625 -0.76625 1.6375 -1 1 C-0.67 0.67 -0.34 0.34 0 0 Z " fill="#D12156" transform="translate(116,258)"/>
<path d="M0 0 C1.29640378 0.59393382 2.58698839 1.20057989 3.875 1.8125 C4.59429687 2.14894531 5.31359375 2.48539063 6.0546875 2.83203125 C8 4 8 4 10 7 C8.51515588 6.60404157 7.0371169 6.18249294 5.5625 5.75 C4.73878906 5.51796875 3.91507813 5.2859375 3.06640625 5.046875 C1 4 1 4 0.21484375 1.890625 C0.14394531 1.26671875 0.07304687 0.6428125 0 0 Z " fill="#CF3564" transform="translate(187,229)"/>
<path d="M0 0 C0 2.64 0 5.28 0 8 C-1.65 8.66 -3.3 9.32 -5 10 C-4.484375 9.62875 -3.96875 9.2575 -3.4375 8.875 C-1.63680017 6.96826848 -1.63680017 6.96826848 -2.3125 3.8125 C-2.539375 2.884375 -2.76625 1.95625 -3 1 C-1 0 -1 0 0 0 Z " fill="#D7124F" transform="translate(159,213)"/>
<path d="M0 0 C3.82097239 0.53069061 6.06171403 1.49701566 9 4 C8.67 4.66 8.34 5.32 8 6 C7.01 5.67 6.02 5.34 5 5 C5 4.34 5 3.68 5 3 C4.01 3 3.02 3 2 3 C2 2.34 2 1.68 2 1 C1.34 0.67 0.68 0.34 0 0 Z " fill="#D5235B" transform="translate(135,242)"/>
<path d="M0 0 C1.98 0 3.96 0 6 0 C5.01 0.495 5.01 0.495 4 1 C3.67 1.66 3.34 2.32 3 3 C2.67 3 2.34 3 2 3 C1.67 4.98 1.34 6.96 1 9 C0.67 9 0.34 9 0 9 C0 6.03 0 3.06 0 0 Z " fill="#D0124E" transform="translate(58,230)"/>
</svg>
